<mxfile host="app.diagrams.net" agent="Mozilla/5.0 (Windows NT 10.0; Win64; x64) AppleWebKit/537.36 (KHTML, like Gecko) Chrome/132.0.0.0 YaBrowser/25.2.0.0 Safari/537.36" version="26.0.16">
  <diagram name="Страница — 1" id="NmjGnQKOQ0bJb6eMUOQD">
    <mxGraphModel dx="1434" dy="783" grid="1" gridSize="10" guides="1" tooltips="1" connect="1" arrows="1" fold="1" page="1" pageScale="1" pageWidth="2339" pageHeight="3300" math="0" shadow="0">
      <root>
        <mxCell id="0" />
        <mxCell id="1" parent="0" />
        <mxCell id="QNfy_sJwfCm9EeOtpcBE-1" value="" style="rounded=0;whiteSpace=wrap;html=1;" vertex="1" parent="1">
          <mxGeometry x="670" y="370" width="500" height="260" as="geometry" />
        </mxCell>
        <mxCell id="QNfy_sJwfCm9EeOtpcBE-11" style="edgeStyle=orthogonalEdgeStyle;rounded=0;orthogonalLoop=1;jettySize=auto;html=1;entryX=0.5;entryY=0;entryDx=0;entryDy=0;" edge="1" parent="1" source="QNfy_sJwfCm9EeOtpcBE-3" target="QNfy_sJwfCm9EeOtpcBE-4">
          <mxGeometry relative="1" as="geometry" />
        </mxCell>
        <mxCell id="QNfy_sJwfCm9EeOtpcBE-3" value="RS485 Ethernet Ports" style="rounded=0;whiteSpace=wrap;html=1;" vertex="1" parent="1">
          <mxGeometry x="790" y="370" width="260" height="40" as="geometry" />
        </mxCell>
        <mxCell id="QNfy_sJwfCm9EeOtpcBE-12" style="edgeStyle=orthogonalEdgeStyle;rounded=0;orthogonalLoop=1;jettySize=auto;html=1;entryX=0.5;entryY=0;entryDx=0;entryDy=0;" edge="1" parent="1" source="QNfy_sJwfCm9EeOtpcBE-4" target="QNfy_sJwfCm9EeOtpcBE-5">
          <mxGeometry relative="1" as="geometry" />
        </mxCell>
        <mxCell id="QNfy_sJwfCm9EeOtpcBE-20" style="edgeStyle=orthogonalEdgeStyle;rounded=0;orthogonalLoop=1;jettySize=auto;html=1;exitX=0;exitY=0.5;exitDx=0;exitDy=0;entryX=1;entryY=0.5;entryDx=0;entryDy=0;" edge="1" parent="1" source="QNfy_sJwfCm9EeOtpcBE-4" target="QNfy_sJwfCm9EeOtpcBE-19">
          <mxGeometry relative="1" as="geometry" />
        </mxCell>
        <mxCell id="QNfy_sJwfCm9EeOtpcBE-4" value="MCU" style="rounded=0;whiteSpace=wrap;html=1;" vertex="1" parent="1">
          <mxGeometry x="860" y="470" width="120" height="60" as="geometry" />
        </mxCell>
        <mxCell id="QNfy_sJwfCm9EeOtpcBE-5" value="GPIO PWM PulseCounter Analog UART SPI I2C Ports" style="rounded=0;whiteSpace=wrap;html=1;" vertex="1" parent="1">
          <mxGeometry x="740" y="590" width="360" height="40" as="geometry" />
        </mxCell>
        <mxCell id="QNfy_sJwfCm9EeOtpcBE-36" style="edgeStyle=orthogonalEdgeStyle;rounded=0;orthogonalLoop=1;jettySize=auto;html=1;entryX=1;entryY=0.25;entryDx=0;entryDy=0;" edge="1" parent="1" source="QNfy_sJwfCm9EeOtpcBE-6" target="QNfy_sJwfCm9EeOtpcBE-4">
          <mxGeometry relative="1" as="geometry" />
        </mxCell>
        <mxCell id="QNfy_sJwfCm9EeOtpcBE-6" value="Display Buttons" style="rounded=0;whiteSpace=wrap;html=1;" vertex="1" parent="1">
          <mxGeometry x="1089.5" y="425" width="80" height="60" as="geometry" />
        </mxCell>
        <mxCell id="QNfy_sJwfCm9EeOtpcBE-13" value="Phy board Type A" style="rounded=0;whiteSpace=wrap;html=1;" vertex="1" parent="1">
          <mxGeometry x="670" y="780" width="120" height="60" as="geometry" />
        </mxCell>
        <mxCell id="QNfy_sJwfCm9EeOtpcBE-14" value="Server" style="ellipse;whiteSpace=wrap;html=1;fontSize=16;" vertex="1" parent="1">
          <mxGeometry x="860" y="170" width="120" height="80" as="geometry" />
        </mxCell>
        <mxCell id="QNfy_sJwfCm9EeOtpcBE-15" value="Phy board Type B" style="rounded=0;whiteSpace=wrap;html=1;" vertex="1" parent="1">
          <mxGeometry x="860" y="780" width="120" height="60" as="geometry" />
        </mxCell>
        <mxCell id="QNfy_sJwfCm9EeOtpcBE-16" value="" style="shape=flexArrow;endArrow=classic;html=1;rounded=0;" edge="1" parent="1">
          <mxGeometry width="50" height="50" relative="1" as="geometry">
            <mxPoint x="920" y="270" as="sourcePoint" />
            <mxPoint x="919.5" y="360" as="targetPoint" />
          </mxGeometry>
        </mxCell>
        <mxCell id="QNfy_sJwfCm9EeOtpcBE-17" value="Upstream&lt;div&gt;Control Interface&lt;/div&gt;" style="text;html=1;align=center;verticalAlign=middle;whiteSpace=wrap;rounded=0;fontSize=16;" vertex="1" parent="1">
          <mxGeometry x="920" y="280" width="150" height="40" as="geometry" />
        </mxCell>
        <mxCell id="QNfy_sJwfCm9EeOtpcBE-18" value="Base" style="text;html=1;align=center;verticalAlign=middle;whiteSpace=wrap;rounded=0;fontSize=16;" vertex="1" parent="1">
          <mxGeometry x="600" y="485" width="60" height="30" as="geometry" />
        </mxCell>
        <mxCell id="QNfy_sJwfCm9EeOtpcBE-19" value="External&lt;div&gt;FLASH&lt;/div&gt;" style="rounded=0;whiteSpace=wrap;html=1;" vertex="1" parent="1">
          <mxGeometry x="700" y="470" width="80" height="60" as="geometry" />
        </mxCell>
        <mxCell id="QNfy_sJwfCm9EeOtpcBE-23" style="edgeStyle=orthogonalEdgeStyle;rounded=0;orthogonalLoop=1;jettySize=auto;html=1;exitX=0;exitY=0.5;exitDx=0;exitDy=0;entryX=1;entryY=0.75;entryDx=0;entryDy=0;" edge="1" parent="1" source="QNfy_sJwfCm9EeOtpcBE-22" target="QNfy_sJwfCm9EeOtpcBE-4">
          <mxGeometry relative="1" as="geometry" />
        </mxCell>
        <mxCell id="QNfy_sJwfCm9EeOtpcBE-22" value="USB" style="rounded=0;whiteSpace=wrap;html=1;" vertex="1" parent="1">
          <mxGeometry x="1090" y="510" width="80" height="60" as="geometry" />
        </mxCell>
        <mxCell id="QNfy_sJwfCm9EeOtpcBE-24" value="Management" style="text;html=1;align=center;verticalAlign=middle;whiteSpace=wrap;rounded=0;" vertex="1" parent="1">
          <mxGeometry x="997" y="485" width="80" height="30" as="geometry" />
        </mxCell>
        <mxCell id="QNfy_sJwfCm9EeOtpcBE-25" value="Phy board Type N" style="rounded=0;whiteSpace=wrap;html=1;" vertex="1" parent="1">
          <mxGeometry x="1050" y="780" width="120" height="60" as="geometry" />
        </mxCell>
        <mxCell id="QNfy_sJwfCm9EeOtpcBE-26" value="OR" style="text;html=1;align=center;verticalAlign=middle;whiteSpace=wrap;rounded=0;fontSize=16;" vertex="1" parent="1">
          <mxGeometry x="800" y="795" width="60" height="30" as="geometry" />
        </mxCell>
        <mxCell id="QNfy_sJwfCm9EeOtpcBE-27" value="... OR" style="text;html=1;align=center;verticalAlign=middle;whiteSpace=wrap;rounded=0;fontSize=16;" vertex="1" parent="1">
          <mxGeometry x="985" y="795" width="60" height="30" as="geometry" />
        </mxCell>
        <mxCell id="QNfy_sJwfCm9EeOtpcBE-28" value="" style="shape=flexArrow;endArrow=classic;html=1;rounded=0;" edge="1" parent="1">
          <mxGeometry width="50" height="50" relative="1" as="geometry">
            <mxPoint x="940" y="650" as="sourcePoint" />
            <mxPoint x="940" y="770" as="targetPoint" />
          </mxGeometry>
        </mxCell>
        <mxCell id="QNfy_sJwfCm9EeOtpcBE-29" value="Phy Interface" style="text;html=1;align=center;verticalAlign=middle;whiteSpace=wrap;rounded=0;fontSize=16;" vertex="1" parent="1">
          <mxGeometry x="950" y="680" width="120" height="40" as="geometry" />
        </mxCell>
        <mxCell id="QNfy_sJwfCm9EeOtpcBE-30" value="Actor" style="shape=umlActor;verticalLabelPosition=bottom;verticalAlign=top;html=1;outlineConnect=0;" vertex="1" parent="1">
          <mxGeometry x="1340" y="470" width="30" height="60" as="geometry" />
        </mxCell>
        <mxCell id="QNfy_sJwfCm9EeOtpcBE-34" value="" style="shape=flexArrow;endArrow=classic;html=1;rounded=0;" edge="1" parent="1">
          <mxGeometry width="50" height="50" relative="1" as="geometry">
            <mxPoint x="1330" y="500" as="sourcePoint" />
            <mxPoint x="1180" y="500" as="targetPoint" />
          </mxGeometry>
        </mxCell>
        <mxCell id="QNfy_sJwfCm9EeOtpcBE-35" value="On place&lt;br&gt;User interface" style="text;html=1;align=center;verticalAlign=middle;whiteSpace=wrap;rounded=0;fontSize=16;" vertex="1" parent="1">
          <mxGeometry x="1180" y="435" width="150" height="40" as="geometry" />
        </mxCell>
      </root>
    </mxGraphModel>
  </diagram>
</mxfile>
